<svg id="visual" viewBox="0 0 700 200" width="700" height="200" xmlns="http://www.w3.org/2000/svg" xmlns:xlink="http://www.w3.org/1999/xlink" version="1.1"><path d="M0 45L140 35L280 51L420 39L560 51L700 55L700 0L560 0L420 0L280 0L140 0L0 0Z" fill="#fdba74"></path><path d="M0 117L140 99L280 103L420 95L560 115L700 115L700 53L560 49L420 37L280 49L140 33L0 43Z" fill="#ffcf9b"></path><path d="M0 167L140 179L280 165L420 161L560 173L700 179L700 113L560 113L420 93L280 101L140 97L0 115Z" fill="#ffe3c3"></path><path d="M0 201L140 201L280 201L420 201L560 201L700 201L700 177L560 171L420 159L280 163L140 177L0 165Z" fill="#fff7ed"></path></svg>